# xmcd CD database file
#
# Track frame offsets:
#	180
#	16392
#	37068
#	52800
#	67525
#	92111
#	107957
#	121494
#	140892
#	157089
#
# Disc length: 2816 seconds
#
# Revision: 0
# Processed by: cddbd v1.5.2PL0 Copyright (c) Steve Scherf et al.
# Submitted via: cdripper 1,0,39,0213
#
DISCID=880afe0a
DTITLE=Big Joe Stolle - 17 and 4
DYEAR=1994
DGENRE=Blues
TTITLE0=Nightdriver
TTITLE1=The Woman
TTITLE2=Remember You
TTITLE3=Black Jack
TTITLE4=Deep in my Heart
TTITLE5=Bloody Tears
TTITLE6=Waitin' for you Cue
TTITLE7=Love or Money
TTITLE8=Always that way
TTITLE9=Cryin'
EXTD=YEAR: 1994
EXTT0=
EXTT1=
EXTT2=
EXTT3=
EXTT4=
EXTT5=
EXTT6=
EXTT7=
EXTT8=
EXTT9=
PLAYORDER=
